<mxfile host="app.diagrams.net" modified="2024-04-22T18:49:15.756Z" agent="Mozilla/5.0 (Macintosh; Intel Mac OS X 10.15; rv:125.0) Gecko/20100101 Firefox/125.0" version="24.2.8" etag="4nTrV23a7hSCNnXACDHJ" type="github">
  <diagram name="Страница — 1" id="fcBiCJrmhgnjktnO2Shw">
    <mxGraphModel>
      <root>
        <mxCell id="0" />
        <mxCell id="1" parent="0" />
      </root>
    </mxGraphModel>
  </diagram>
</mxfile>
